{"title":"Torpedo 2007 2DVDrip Norwegian Klam","uid":9341689,"size":3537345661,"categoryP":"video","categoryS":"movies","magnet":"?xt=urn:btih:33d68ee6c313d999c0af269f8d78aae135698bc4&amp;dn=Torpedo+2007+2DVDrip+Norwegian+Klam&amp;tr=udp%3A%2F%2Ftracker.openbittorrent.com%3A80&amp;tr=udp%3A%2F%2Fopen.demonii.com%3A1337&amp;tr=udp%3A%2F%2Ftracker.coppersurfer.tk%3A6969&amp;tr=udp%3A%2F%2Fexodus.desync.com%3A6969","seeders":1,"leechers":0,"uploader":"Klambake","files":-1,"time":1386950115,"description":"With: Jorgen Langhelle, Aksel Hennie and Dejan Cukic\nEen routine undercoverklus verandert in een ware nachtmerrie wanneer Terje, omdat hij naar het verjaarfeestje van zijn dochtertje moet, zijn collega Sebastian in zijn plaats stuurt.\t\n\nA routine undercover job turns into a nightmare....\n &lt;a href=&quot;\nhttp://www.imdb.com/title/tt0818926&quot; rel=&quot;nofollow&quot; target=&quot;_NEW&quot;&gt;\nhttp://www.imdb.com/title/tt0818926&lt;/a&gt;\t\n\n--------------------- Dutch Friends 4ever ---------------------\n---------------------------------------------------------------\n- Bezoek ook eens mijn vrienden op: &lt;a href=&quot; http://www.Film-Test.nl&quot; rel=&quot;nofollow&quot; target=&quot;_NEW&quot;&gt; http://www.Film-Test.nl&lt;/a&gt; --\n----- voor mijn Nederlandse Sync. ondertitels ---- en meer ----\n------- http://www.Film-Test.nl ---- Over Films en meer -------\n---------------------------------------------------------------\n\nGeneral:\n\nComplete name                    : TorpedoPart01.avi\nFormat                           : AVI\nFormat/Info                      : Audio Video Interleave\nFile size                        : 1.70 GiB\nDuration                         : 1h 29mn\nOverall bit rate                 : 2 741 Kbps\n\nVideo:\n\nFormat                           : MPEG-4 Visual\nFormat profile                   : Simple@L3\nFormat settings, BVOP            : No\nFormat settings, QPel            : No\nFormat settings, GMC             : No warppoints\nFormat settings, Matrix          : Default (H.263)\nCodec ID                         : XVID\nCodec ID/Hint                    : XviD\nDuration                         : 1h 29mn\nBit rate                         : 2 282 Kbps\nWidth                            : 704 pixels\nHeight                           : 396 pixels\nDisplay aspect ratio             : 16:9\nFrame rate                       : 25.000 fps\nColor space                      : YUV\nChroma subsampling               : 4:2:0\nBit depth                        : 8 bits\nScan type                        : Progressive\nCompression mode                 : Lossy\nBits/(Pixel*Frame)               : 0.327\nStream size                      : 1.42 GiB (83%)\nWriting library                  : XviD 1.1.2 (UTC 2006-11-01)\n\nAudio:\n\nFormat                           : AC-3\nFormat/Info                      : Audio Coding 3\nMode extension                   : CM (complete main)\nCodec ID                         : 2000\nDuration                         : 1h 29mn\nBit rate mode                    : Constant\nBit rate                         : 448 Kbps\nChannel(s)                       : 6 channels\nChannel positions                : Front: L C R, Side: L R, LFE\nSampling rate                    : 48.0 KHz\nBit depth                        : 16 bits\nCompression mode                 : Lossy\nStream size                      : 285 MiB (16%)\nAlignment                        : Aligned on interleaves\nInterleave, duration             : 32 ms (0.80 video frame)\nInterleave, preload duration     : 3072 ms","torrent":{"xt":"urn:btih:33d68ee6c313d999c0af269f8d78aae135698bc4","amp;dn":"Torpedo+2007+2DVDrip+Norwegian+Klam","amp;tr":["udp%3A%2F%2Ftracker.openbittorrent.com%3A80","udp%3A%2F%2Fopen.demonii.com%3A1337","udp%3A%2F%2Ftracker.coppersurfer.tk%3A6969","udp%3A%2F%2Fexodus.desync.com%3A6969"],"infoHash":"33d68ee6c313d999c0af269f8d78aae135698bc4","infoHashBuffer":{"type":"Buffer","data":[51,214,142,230,195,19,217,153,192,175,38,159,141,120,170,225,53,105,139,196]},"announce":[],"urlList":[]}}